<mxfile host="Electron" agent="Mozilla/5.0 (Windows NT 10.0; Win64; x64) AppleWebKit/537.36 (KHTML, like Gecko) draw.io/26.0.9 Chrome/128.0.6613.186 Electron/32.2.5 Safari/537.36" version="26.0.9">
  <diagram name="Page-1" id="g_KH_liQ94zSvhpWJ5Tr">
    <mxGraphModel dx="1434" dy="884" grid="1" gridSize="10" guides="1" tooltips="1" connect="1" arrows="1" fold="1" page="1" pageScale="1" pageWidth="827" pageHeight="1169" math="0" shadow="0">
      <root>
        <mxCell id="0" />
        <mxCell id="1" parent="0" />
        <mxCell id="dI0T8Q2yRcKRVG0YcVpi-3" value="" style="endArrow=classic;html=1;exitX=1;exitY=0.5;exitDx=0;exitDy=0;entryX=0;entryY=0.5;entryDx=0;entryDy=0;endSize=8;arcSize=0;rounded=0;" parent="1" source="dI0T8Q2yRcKRVG0YcVpi-19" target="dI0T8Q2yRcKRVG0YcVpi-9" edge="1">
          <mxGeometry width="50" height="50" relative="1" as="geometry">
            <mxPoint x="239" y="305" as="sourcePoint" />
            <mxPoint x="429" y="305" as="targetPoint" />
          </mxGeometry>
        </mxCell>
        <mxCell id="dI0T8Q2yRcKRVG0YcVpi-4" value="dcterms:license [1..1]" style="text;html=1;align=center;verticalAlign=middle;resizable=0;points=[];labelBackgroundColor=#ffffff;" parent="dI0T8Q2yRcKRVG0YcVpi-3" vertex="1" connectable="0">
          <mxGeometry x="-0.1269" relative="1" as="geometry">
            <mxPoint x="53" as="offset" />
          </mxGeometry>
        </mxCell>
        <mxCell id="dI0T8Q2yRcKRVG0YcVpi-5" value="" style="endArrow=classic;html=1;exitX=1;exitY=0.5;exitDx=0;exitDy=0;entryX=0;entryY=0.5;entryDx=0;entryDy=0;endSize=8;arcSize=0;rounded=0;" parent="1" source="dI0T8Q2yRcKRVG0YcVpi-19" target="dI0T8Q2yRcKRVG0YcVpi-10" edge="1">
          <mxGeometry width="50" height="50" relative="1" as="geometry">
            <mxPoint x="240" y="375" as="sourcePoint" />
            <mxPoint x="530" y="355" as="targetPoint" />
            <Array as="points">
              <mxPoint x="320" y="335" />
            </Array>
          </mxGeometry>
        </mxCell>
        <mxCell id="dI0T8Q2yRcKRVG0YcVpi-6" value="dcterms:accessRights [1..1]" style="text;html=1;align=center;verticalAlign=middle;resizable=0;points=[];labelBackgroundColor=#ffffff;" parent="dI0T8Q2yRcKRVG0YcVpi-5" vertex="1" connectable="0">
          <mxGeometry x="-0.1269" relative="1" as="geometry">
            <mxPoint x="58" as="offset" />
          </mxGeometry>
        </mxCell>
        <mxCell id="dI0T8Q2yRcKRVG0YcVpi-7" value="" style="endArrow=classic;html=1;exitX=1;exitY=0.5;exitDx=0;exitDy=0;endSize=8;arcSize=0;rounded=0;entryX=0;entryY=0.5;entryDx=0;entryDy=0;" parent="1" source="dI0T8Q2yRcKRVG0YcVpi-19" target="dI0T8Q2yRcKRVG0YcVpi-20" edge="1">
          <mxGeometry width="50" height="50" relative="1" as="geometry">
            <mxPoint x="250" y="305" as="sourcePoint" />
            <mxPoint x="530" y="435" as="targetPoint" />
            <Array as="points">
              <mxPoint x="320" y="375" />
            </Array>
          </mxGeometry>
        </mxCell>
        <mxCell id="dI0T8Q2yRcKRVG0YcVpi-8" value="&lt;div&gt;dcterms:rights [0..1]&lt;/div&gt;" style="text;html=1;align=center;verticalAlign=middle;resizable=0;points=[];labelBackgroundColor=#ffffff;" parent="dI0T8Q2yRcKRVG0YcVpi-7" vertex="1" connectable="0">
          <mxGeometry x="-0.1269" relative="1" as="geometry">
            <mxPoint x="72" as="offset" />
          </mxGeometry>
        </mxCell>
        <mxCell id="dI0T8Q2yRcKRVG0YcVpi-9" value="dcterms:LicenseDocument" style="rounded=0;whiteSpace=wrap;html=1;snapToPoint=1;points=[[0.1,0],[0.2,0],[0.3,0],[0.4,0],[0.5,0],[0.6,0],[0.7,0],[0.8,0],[0.9,0],[0,0.1],[0,0.3],[0,0.5],[0,0.7],[0,0.9],[0.1,1],[0.2,1],[0.3,1],[0.4,1],[0.5,1],[0.6,1],[0.7,1],[0.8,1],[0.9,1],[1,0.1],[1,0.3],[1,0.5],[1,0.7],[1,0.9]];" parent="1" vertex="1">
          <mxGeometry x="530" y="280" width="180" height="30" as="geometry" />
        </mxCell>
        <mxCell id="dI0T8Q2yRcKRVG0YcVpi-10" value="dcterms:RightsStatement" style="rounded=0;whiteSpace=wrap;html=1;snapToPoint=1;points=[[0.1,0],[0.2,0],[0.3,0],[0.4,0],[0.5,0],[0.6,0],[0.7,0],[0.8,0],[0.9,0],[0,0.1],[0,0.3],[0,0.5],[0,0.7],[0,0.9],[0.1,1],[0.2,1],[0.3,1],[0.4,1],[0.5,1],[0.6,1],[0.7,1],[0.8,1],[0.9,1],[1,0.1],[1,0.3],[1,0.5],[1,0.7],[1,0.9]];" parent="1" vertex="1">
          <mxGeometry x="530" y="320" width="180" height="30" as="geometry" />
        </mxCell>
        <mxCell id="dI0T8Q2yRcKRVG0YcVpi-11" value="" style="endArrow=classic;html=1;exitX=1;exitY=0.5;exitDx=0;exitDy=0;entryX=0;entryY=0.5;entryDx=0;entryDy=0;endSize=8;arcSize=0;rounded=0;" parent="1" source="dI0T8Q2yRcKRVG0YcVpi-19" target="dI0T8Q2yRcKRVG0YcVpi-13" edge="1">
          <mxGeometry width="50" height="50" relative="1" as="geometry">
            <mxPoint x="250" y="495" as="sourcePoint" />
            <mxPoint x="439" y="505" as="targetPoint" />
            <Array as="points">
              <mxPoint x="320" y="415" />
            </Array>
          </mxGeometry>
        </mxCell>
        <mxCell id="dI0T8Q2yRcKRVG0YcVpi-12" value="&lt;div&gt;dcat:accessURL [0..*]&lt;/div&gt;" style="text;html=1;align=center;verticalAlign=middle;resizable=0;points=[];labelBackgroundColor=#ffffff;" parent="dI0T8Q2yRcKRVG0YcVpi-11" vertex="1" connectable="0">
          <mxGeometry x="-0.1269" relative="1" as="geometry">
            <mxPoint x="89" as="offset" />
          </mxGeometry>
        </mxCell>
        <mxCell id="dI0T8Q2yRcKRVG0YcVpi-13" value="rdfs:Resource" style="rounded=0;whiteSpace=wrap;html=1;snapToPoint=1;points=[[0.1,0],[0.2,0],[0.3,0],[0.4,0],[0.5,0],[0.6,0],[0.7,0],[0.8,0],[0.9,0],[0,0.1],[0,0.3],[0,0.5],[0,0.7],[0,0.9],[0.1,1],[0.2,1],[0.3,1],[0.4,1],[0.5,1],[0.6,1],[0.7,1],[0.8,1],[0.9,1],[1,0.1],[1,0.3],[1,0.5],[1,0.7],[1,0.9]];" parent="1" vertex="1">
          <mxGeometry x="530" y="400" width="180" height="30" as="geometry" />
        </mxCell>
        <mxCell id="dI0T8Q2yRcKRVG0YcVpi-14" value="" style="endArrow=classic;html=1;exitX=1;exitY=0.5;exitDx=0;exitDy=0;entryX=0;entryY=0.5;entryDx=0;entryDy=0;endSize=8;arcSize=0;rounded=0;" parent="1" source="dI0T8Q2yRcKRVG0YcVpi-19" target="dI0T8Q2yRcKRVG0YcVpi-16" edge="1">
          <mxGeometry width="50" height="50" relative="1" as="geometry">
            <mxPoint x="240" y="410" as="sourcePoint" />
            <mxPoint x="439" y="620" as="targetPoint" />
            <Array as="points">
              <mxPoint x="320" y="455" />
            </Array>
          </mxGeometry>
        </mxCell>
        <mxCell id="dI0T8Q2yRcKRVG0YcVpi-15" value="&lt;div&gt;dcat:accessService [0..*]&lt;/div&gt;" style="text;html=1;align=center;verticalAlign=middle;resizable=0;points=[];labelBackgroundColor=#ffffff;" parent="dI0T8Q2yRcKRVG0YcVpi-14" vertex="1" connectable="0">
          <mxGeometry x="-0.1269" relative="1" as="geometry">
            <mxPoint x="104" y="8" as="offset" />
          </mxGeometry>
        </mxCell>
        <mxCell id="dI0T8Q2yRcKRVG0YcVpi-16" value="dcat:DataService" style="rounded=0;whiteSpace=wrap;html=1;snapToPoint=1;points=[[0.1,0],[0.2,0],[0.3,0],[0.4,0],[0.5,0],[0.6,0],[0.7,0],[0.8,0],[0.9,0],[0,0.1],[0,0.3],[0,0.5],[0,0.7],[0,0.9],[0.1,1],[0.2,1],[0.3,1],[0.4,1],[0.5,1],[0.6,1],[0.7,1],[0.8,1],[0.9,1],[1,0.1],[1,0.3],[1,0.5],[1,0.7],[1,0.9]];fillColor=#CCFFFF;" parent="1" vertex="1">
          <mxGeometry x="530" y="440" width="180" height="30" as="geometry" />
        </mxCell>
        <mxCell id="dI0T8Q2yRcKRVG0YcVpi-17" value="" style="group" parent="1" vertex="1" connectable="0">
          <mxGeometry x="30" y="280" width="210" height="240" as="geometry" />
        </mxCell>
        <mxCell id="dI0T8Q2yRcKRVG0YcVpi-18" value="&lt;div&gt;&lt;span style=&quot;background-color: transparent; color: light-dark(rgb(0, 0, 0), rgb(255, 255, 255));&quot;&gt;[1..*] dcterms:title:&amp;nbsp;&lt;/span&gt;&lt;span style=&quot;background-color: transparent; color: light-dark(rgb(0, 0, 0), rgb(255, 255, 255));&quot;&gt;rdfs:Literal&lt;/span&gt;&lt;/div&gt;&lt;div&gt;&lt;span style=&quot;background-color: transparent; color: light-dark(rgb(0, 0, 0), rgb(255, 255, 255));&quot;&gt;typed as xsd:string&lt;/span&gt;&lt;/div&gt;&lt;div&gt;&lt;div&gt;&lt;span style=&quot;background-color: transparent; color: light-dark(rgb(0, 0, 0), rgb(255, 255, 255));&quot;&gt;[1..*] dcterms:description:&amp;nbsp;&lt;/span&gt;&lt;span style=&quot;background-color: transparent; color: light-dark(rgb(0, 0, 0), rgb(255, 255, 255));&quot;&gt;rdfs:Literal&lt;/span&gt;&lt;/div&gt;&lt;div&gt;&lt;span style=&quot;background-color: transparent; color: light-dark(rgb(0, 0, 0), rgb(255, 255, 255));&quot;&gt;typed as xsd:string&lt;/span&gt;&lt;/div&gt;&lt;/div&gt;&lt;div&gt;&lt;div&gt;[1..1] dcterms:issued:&amp;nbsp;rdfs:Literal&lt;/div&gt;&lt;div&gt;typed as xsd:date&lt;br&gt;&lt;/div&gt;&lt;div&gt;[1..1] dcterms:modified:&amp;nbsp;rdfs:Literal typed as xsd:date&lt;/div&gt;&lt;/div&gt;&lt;div&gt;[0..*] dcat:byteSize:&amp;nbsp;rdfs:Literal&lt;/div&gt;&lt;div&gt;typed as xsd:nonNegativeInteger&lt;br&gt;&lt;/div&gt;&lt;div&gt;&lt;div&gt;&lt;span style=&quot;background-color: transparent; color: light-dark(rgb(0, 0, 0), rgb(255, 255, 255));&quot;&gt;[0..1] dcat:spatialResolutionInMeters:&lt;/span&gt;&lt;/div&gt;&lt;div&gt;&lt;span style=&quot;background-color: transparent; color: light-dark(rgb(0, 0, 0), rgb(255, 255, 255));&quot;&gt;rdfs:Literal typed as xsd:decimal&lt;/span&gt;&lt;br&gt;&lt;/div&gt;&lt;div&gt;&lt;div&gt;&lt;span style=&quot;background-color: transparent; color: light-dark(rgb(0, 0, 0), rgb(255, 255, 255));&quot;&gt;[0..1] dcat:temporalResolution:&lt;/span&gt;&lt;/div&gt;&lt;div&gt;&lt;span style=&quot;background-color: transparent; color: light-dark(rgb(0, 0, 0), rgb(255, 255, 255));&quot;&gt;rdfs:Literal typed as xsd:duration&lt;/span&gt;&lt;/div&gt;&lt;/div&gt;&lt;/div&gt;" style="rounded=0;whiteSpace=wrap;html=1;snapToPoint=1;points=[[0.1,0],[0.2,0],[0.3,0],[0.4,0],[0.5,0],[0.6,0],[0.7,0],[0.8,0],[0.9,0],[0,0.1],[0,0.3],[0,0.5],[0,0.7],[0,0.9],[0.1,1],[0.2,1],[0.3,1],[0.4,1],[0.5,1],[0.6,1],[0.7,1],[0.8,1],[0.9,1],[1,0.1],[1,0.3],[1,0.5],[1,0.7],[1,0.9]];" parent="dI0T8Q2yRcKRVG0YcVpi-17" vertex="1">
          <mxGeometry y="30" width="210" height="210" as="geometry" />
        </mxCell>
        <mxCell id="dI0T8Q2yRcKRVG0YcVpi-19" value="dcat:Distribution" style="rounded=0;whiteSpace=wrap;html=1;snapToPoint=1;points=[[0.1,0],[0.2,0],[0.3,0],[0.4,0],[0.5,0],[0.6,0],[0.7,0],[0.8,0],[0.9,0],[0,0.1],[0,0.3],[0,0.5],[0,0.7],[0,0.9],[0.1,1],[0.2,1],[0.3,1],[0.4,1],[0.5,1],[0.6,1],[0.7,1],[0.8,1],[0.9,1],[1,0.1],[1,0.3],[1,0.5],[1,0.7],[1,0.9]];fillColor=#CCFFE6;" parent="dI0T8Q2yRcKRVG0YcVpi-17" vertex="1">
          <mxGeometry width="210" height="30" as="geometry" />
        </mxCell>
        <mxCell id="dI0T8Q2yRcKRVG0YcVpi-20" value="dcterms:RightsStatement" style="rounded=0;whiteSpace=wrap;html=1;snapToPoint=1;points=[[0.1,0],[0.2,0],[0.3,0],[0.4,0],[0.5,0],[0.6,0],[0.7,0],[0.8,0],[0.9,0],[0,0.1],[0,0.3],[0,0.5],[0,0.7],[0,0.9],[0.1,1],[0.2,1],[0.3,1],[0.4,1],[0.5,1],[0.6,1],[0.7,1],[0.8,1],[0.9,1],[1,0.1],[1,0.3],[1,0.5],[1,0.7],[1,0.9]];" parent="1" vertex="1">
          <mxGeometry x="530" y="360" width="180" height="30" as="geometry" />
        </mxCell>
        <mxCell id="dI0T8Q2yRcKRVG0YcVpi-30" value="" style="endArrow=classic;html=1;exitX=1;exitY=0.5;exitDx=0;exitDy=0;entryX=0;entryY=0.5;entryDx=0;entryDy=0;endSize=8;arcSize=0;rounded=0;" parent="1" source="dI0T8Q2yRcKRVG0YcVpi-19" target="dI0T8Q2yRcKRVG0YcVpi-32" edge="1">
          <mxGeometry width="50" height="50" relative="1" as="geometry">
            <mxPoint x="240" y="380" as="sourcePoint" />
            <mxPoint x="439" y="590" as="targetPoint" />
            <Array as="points">
              <mxPoint x="320" y="495" />
            </Array>
          </mxGeometry>
        </mxCell>
        <mxCell id="dI0T8Q2yRcKRVG0YcVpi-31" value="&lt;div&gt;dcat:downloadURL [0..*]&lt;/div&gt;" style="text;html=1;align=center;verticalAlign=middle;resizable=0;points=[];labelBackgroundColor=#ffffff;" parent="dI0T8Q2yRcKRVG0YcVpi-30" vertex="1" connectable="0">
          <mxGeometry x="-0.1269" relative="1" as="geometry">
            <mxPoint x="111" y="27" as="offset" />
          </mxGeometry>
        </mxCell>
        <mxCell id="dI0T8Q2yRcKRVG0YcVpi-32" value="rdfs:Resource" style="rounded=0;whiteSpace=wrap;html=1;snapToPoint=1;points=[[0.1,0],[0.2,0],[0.3,0],[0.4,0],[0.5,0],[0.6,0],[0.7,0],[0.8,0],[0.9,0],[0,0.1],[0,0.3],[0,0.5],[0,0.7],[0,0.9],[0.1,1],[0.2,1],[0.3,1],[0.4,1],[0.5,1],[0.6,1],[0.7,1],[0.8,1],[0.9,1],[1,0.1],[1,0.3],[1,0.5],[1,0.7],[1,0.9]];" parent="1" vertex="1">
          <mxGeometry x="530" y="480" width="180" height="30" as="geometry" />
        </mxCell>
        <mxCell id="dI0T8Q2yRcKRVG0YcVpi-33" value="" style="endArrow=classic;html=1;exitX=1;exitY=0.5;exitDx=0;exitDy=0;entryX=0;entryY=0.5;entryDx=0;entryDy=0;endSize=8;arcSize=0;rounded=0;" parent="1" source="dI0T8Q2yRcKRVG0YcVpi-19" target="dI0T8Q2yRcKRVG0YcVpi-35" edge="1">
          <mxGeometry width="50" height="50" relative="1" as="geometry">
            <mxPoint x="240" y="340" as="sourcePoint" />
            <mxPoint x="439" y="635" as="targetPoint" />
            <Array as="points">
              <mxPoint x="320" y="535" />
            </Array>
          </mxGeometry>
        </mxCell>
        <mxCell id="dI0T8Q2yRcKRVG0YcVpi-34" value="&lt;div&gt;dcterms:conformsTo [0..*]&lt;/div&gt;" style="text;html=1;align=center;verticalAlign=middle;resizable=0;points=[];labelBackgroundColor=#ffffff;" parent="dI0T8Q2yRcKRVG0YcVpi-33" vertex="1" connectable="0">
          <mxGeometry x="-0.1269" relative="1" as="geometry">
            <mxPoint x="116" y="48" as="offset" />
          </mxGeometry>
        </mxCell>
        <mxCell id="dI0T8Q2yRcKRVG0YcVpi-35" value="dcterms:Standard" style="rounded=0;whiteSpace=wrap;html=1;snapToPoint=1;points=[[0.1,0],[0.2,0],[0.3,0],[0.4,0],[0.5,0],[0.6,0],[0.7,0],[0.8,0],[0.9,0],[0,0.1],[0,0.3],[0,0.5],[0,0.7],[0,0.9],[0.1,1],[0.2,1],[0.3,1],[0.4,1],[0.5,1],[0.6,1],[0.7,1],[0.8,1],[0.9,1],[1,0.1],[1,0.3],[1,0.5],[1,0.7],[1,0.9]];" parent="1" vertex="1">
          <mxGeometry x="530" y="520" width="180" height="30" as="geometry" />
        </mxCell>
        <mxCell id="dI0T8Q2yRcKRVG0YcVpi-36" value="" style="endArrow=classic;html=1;exitX=1;exitY=0.5;exitDx=0;exitDy=0;endSize=8;arcSize=0;rounded=0;entryX=0;entryY=0.5;entryDx=0;entryDy=0;" parent="1" source="dI0T8Q2yRcKRVG0YcVpi-19" target="dI0T8Q2yRcKRVG0YcVpi-38" edge="1">
          <mxGeometry width="50" height="50" relative="1" as="geometry">
            <mxPoint x="240" y="350" as="sourcePoint" />
            <mxPoint x="500" y="620" as="targetPoint" />
            <Array as="points">
              <mxPoint x="320" y="575" />
            </Array>
          </mxGeometry>
        </mxCell>
        <mxCell id="dI0T8Q2yRcKRVG0YcVpi-37" value="&lt;div&gt;dcat:mediaType [?..?]&lt;/div&gt;" style="text;html=1;align=center;verticalAlign=middle;resizable=0;points=[];labelBackgroundColor=#ffffff;" parent="dI0T8Q2yRcKRVG0YcVpi-36" vertex="1" connectable="0">
          <mxGeometry x="-0.1269" relative="1" as="geometry">
            <mxPoint x="120" y="69" as="offset" />
          </mxGeometry>
        </mxCell>
        <mxCell id="dI0T8Q2yRcKRVG0YcVpi-38" value="dcterms:MediaType" style="rounded=0;whiteSpace=wrap;html=1;snapToPoint=1;points=[[0.1,0],[0.2,0],[0.3,0],[0.4,0],[0.5,0],[0.6,0],[0.7,0],[0.8,0],[0.9,0],[0,0.1],[0,0.3],[0,0.5],[0,0.7],[0,0.9],[0.1,1],[0.2,1],[0.3,1],[0.4,1],[0.5,1],[0.6,1],[0.7,1],[0.8,1],[0.9,1],[1,0.1],[1,0.3],[1,0.5],[1,0.7],[1,0.9]];" parent="1" vertex="1">
          <mxGeometry x="530" y="560" width="180" height="30" as="geometry" />
        </mxCell>
        <mxCell id="dI0T8Q2yRcKRVG0YcVpi-39" value="dcterms:MediaTypeOrExtent" style="rounded=0;whiteSpace=wrap;html=1;snapToPoint=1;points=[[0.1,0],[0.2,0],[0.3,0],[0.4,0],[0.5,0],[0.6,0],[0.7,0],[0.8,0],[0.9,0],[0,0.1],[0,0.3],[0,0.5],[0,0.7],[0,0.9],[0.1,1],[0.2,1],[0.3,1],[0.4,1],[0.5,1],[0.6,1],[0.7,1],[0.8,1],[0.9,1],[1,0.1],[1,0.3],[1,0.5],[1,0.7],[1,0.9]];" parent="1" vertex="1">
          <mxGeometry x="530" y="600" width="180" height="30" as="geometry" />
        </mxCell>
        <mxCell id="dI0T8Q2yRcKRVG0YcVpi-40" value="dcterms:MediaType" style="rounded=0;whiteSpace=wrap;html=1;snapToPoint=1;points=[[0.1,0],[0.2,0],[0.3,0],[0.4,0],[0.5,0],[0.6,0],[0.7,0],[0.8,0],[0.9,0],[0,0.1],[0,0.3],[0,0.5],[0,0.7],[0,0.9],[0.1,1],[0.2,1],[0.3,1],[0.4,1],[0.5,1],[0.6,1],[0.7,1],[0.8,1],[0.9,1],[1,0.1],[1,0.3],[1,0.5],[1,0.7],[1,0.9]];" parent="1" vertex="1">
          <mxGeometry x="530" y="640" width="180" height="30" as="geometry" />
        </mxCell>
        <mxCell id="dI0T8Q2yRcKRVG0YcVpi-41" value="dcterms:MediaType" style="rounded=0;whiteSpace=wrap;html=1;snapToPoint=1;points=[[0.1,0],[0.2,0],[0.3,0],[0.4,0],[0.5,0],[0.6,0],[0.7,0],[0.8,0],[0.9,0],[0,0.1],[0,0.3],[0,0.5],[0,0.7],[0,0.9],[0.1,1],[0.2,1],[0.3,1],[0.4,1],[0.5,1],[0.6,1],[0.7,1],[0.8,1],[0.9,1],[1,0.1],[1,0.3],[1,0.5],[1,0.7],[1,0.9]];" parent="1" vertex="1">
          <mxGeometry x="530" y="680" width="180" height="30" as="geometry" />
        </mxCell>
        <mxCell id="dI0T8Q2yRcKRVG0YcVpi-42" value="spdx:Checksum" style="rounded=0;whiteSpace=wrap;html=1;snapToPoint=1;points=[[0.1,0],[0.2,0],[0.3,0],[0.4,0],[0.5,0],[0.6,0],[0.7,0],[0.8,0],[0.9,0],[0,0.1],[0,0.3],[0,0.5],[0,0.7],[0,0.9],[0.1,1],[0.2,1],[0.3,1],[0.4,1],[0.5,1],[0.6,1],[0.7,1],[0.8,1],[0.9,1],[1,0.1],[1,0.3],[1,0.5],[1,0.7],[1,0.9]];" parent="1" vertex="1">
          <mxGeometry x="530" y="720" width="180" height="30" as="geometry" />
        </mxCell>
        <mxCell id="dI0T8Q2yRcKRVG0YcVpi-43" value="" style="endArrow=classic;html=1;exitX=1;exitY=0.5;exitDx=0;exitDy=0;endSize=8;arcSize=0;rounded=0;entryX=0;entryY=0.5;entryDx=0;entryDy=0;" parent="1" source="dI0T8Q2yRcKRVG0YcVpi-19" target="dI0T8Q2yRcKRVG0YcVpi-39" edge="1">
          <mxGeometry width="50" height="50" relative="1" as="geometry">
            <mxPoint x="240" y="340" as="sourcePoint" />
            <mxPoint x="530" y="620" as="targetPoint" />
            <Array as="points">
              <mxPoint x="320" y="615" />
            </Array>
          </mxGeometry>
        </mxCell>
        <mxCell id="dI0T8Q2yRcKRVG0YcVpi-44" value="&lt;div&gt;dcterms:format [?..?]&lt;/div&gt;" style="text;html=1;align=center;verticalAlign=middle;resizable=0;points=[];labelBackgroundColor=#ffffff;" parent="dI0T8Q2yRcKRVG0YcVpi-43" vertex="1" connectable="0">
          <mxGeometry x="-0.1269" relative="1" as="geometry">
            <mxPoint x="123" y="93" as="offset" />
          </mxGeometry>
        </mxCell>
        <mxCell id="dI0T8Q2yRcKRVG0YcVpi-45" value="" style="endArrow=classic;html=1;exitX=1;exitY=0.5;exitDx=0;exitDy=0;endSize=8;arcSize=0;rounded=0;entryX=0;entryY=0.5;entryDx=0;entryDy=0;" parent="1" source="dI0T8Q2yRcKRVG0YcVpi-19" target="dI0T8Q2yRcKRVG0YcVpi-40" edge="1">
          <mxGeometry width="50" height="50" relative="1" as="geometry">
            <mxPoint x="240" y="380" as="sourcePoint" />
            <mxPoint x="530" y="655" as="targetPoint" />
            <Array as="points">
              <mxPoint x="320" y="655" />
            </Array>
          </mxGeometry>
        </mxCell>
        <mxCell id="dI0T8Q2yRcKRVG0YcVpi-46" value="&lt;div&gt;dcat:compressFormat [?..?]&lt;/div&gt;" style="text;html=1;align=center;verticalAlign=middle;resizable=0;points=[];labelBackgroundColor=#ffffff;" parent="dI0T8Q2yRcKRVG0YcVpi-45" vertex="1" connectable="0">
          <mxGeometry x="-0.1269" relative="1" as="geometry">
            <mxPoint x="125" y="114" as="offset" />
          </mxGeometry>
        </mxCell>
        <mxCell id="dI0T8Q2yRcKRVG0YcVpi-47" value="" style="endArrow=classic;html=1;exitX=1;exitY=0.5;exitDx=0;exitDy=0;endSize=8;arcSize=0;rounded=0;entryX=0;entryY=0.5;entryDx=0;entryDy=0;" parent="1" source="dI0T8Q2yRcKRVG0YcVpi-19" target="dI0T8Q2yRcKRVG0YcVpi-41" edge="1">
          <mxGeometry width="50" height="50" relative="1" as="geometry">
            <mxPoint x="240" y="420" as="sourcePoint" />
            <mxPoint x="530" y="695" as="targetPoint" />
            <Array as="points">
              <mxPoint x="320" y="695" />
            </Array>
          </mxGeometry>
        </mxCell>
        <mxCell id="dI0T8Q2yRcKRVG0YcVpi-48" value="&lt;div&gt;dcat:packageFormat [0..1]&lt;/div&gt;" style="text;html=1;align=center;verticalAlign=middle;resizable=0;points=[];labelBackgroundColor=#ffffff;" parent="dI0T8Q2yRcKRVG0YcVpi-47" vertex="1" connectable="0">
          <mxGeometry x="-0.1269" relative="1" as="geometry">
            <mxPoint x="127" y="135" as="offset" />
          </mxGeometry>
        </mxCell>
        <mxCell id="dI0T8Q2yRcKRVG0YcVpi-50" value="" style="endArrow=classic;html=1;exitX=1;exitY=0.5;exitDx=0;exitDy=0;endSize=8;arcSize=0;rounded=0;entryX=0;entryY=0.5;entryDx=0;entryDy=0;" parent="1" source="dI0T8Q2yRcKRVG0YcVpi-19" target="dI0T8Q2yRcKRVG0YcVpi-42" edge="1">
          <mxGeometry width="50" height="50" relative="1" as="geometry">
            <mxPoint x="240" y="460" as="sourcePoint" />
            <mxPoint x="530" y="735" as="targetPoint" />
            <Array as="points">
              <mxPoint x="320" y="735" />
            </Array>
          </mxGeometry>
        </mxCell>
        <mxCell id="dI0T8Q2yRcKRVG0YcVpi-51" value="&lt;div&gt;spdx:checksum [0..1]&lt;/div&gt;" style="text;html=1;align=center;verticalAlign=middle;resizable=0;points=[];labelBackgroundColor=#ffffff;" parent="dI0T8Q2yRcKRVG0YcVpi-50" vertex="1" connectable="0">
          <mxGeometry x="-0.1269" relative="1" as="geometry">
            <mxPoint x="129" y="158" as="offset" />
          </mxGeometry>
        </mxCell>
      </root>
    </mxGraphModel>
  </diagram>
</mxfile>
